<svg width="110" height="110" viewBox="0 0 110 110" fill="none" xmlns="http://www.w3.org/2000/svg">
<rect width="110" height="110" rx="30" fill="black"/>
<path d="M54.4375 39H52.6875C52.3958 37.9583 52.1042 37.0417 51.8125 36.25C51.5625 35.4583 51.25 34.75 50.875 34.125C50.5417 33.4583 50.1667 32.875 49.75 32.375C49.3333 31.8333 48.8542 31.2708 48.3125 30.6875C45.8125 28.0625 42.8958 26.75 39.5625 26.75C37.3542 26.75 35.5625 27.3333 34.1875 28.5C32.8542 29.6667 32.1875 31.25 32.1875 33.25C32.1875 35.2083 33 37.0417 34.625 38.75C36.25 40.4583 38.9167 42.3333 42.625 44.375C47.375 46.9583 50.7917 49.4792 52.875 51.9375C55 54.3958 56.0625 57.0833 56.0625 60C56.0625 61.8333 55.6875 63.5417 54.9375 65.125C54.1875 66.7083 53.1667 68.0833 51.875 69.25C50.5833 70.4167 49.0417 71.3333 47.25 72C45.4583 72.6667 43.5417 73 41.5 73C40.0417 73 38.6042 72.875 37.1875 72.625C35.7708 72.375 34.3958 71.9583 33.0625 71.375C32.3542 71.125 31.7083 70.9375 31.125 70.8125C30.5417 70.6458 30.0625 70.5625 29.6875 70.5625C29.1458 70.5625 28.6875 70.7917 28.3125 71.25C27.9375 71.7083 27.7292 72.2708 27.6875 72.9375H26.125L24 57.8125H25.625C27.4167 62.1875 29.4583 65.3958 31.75 67.4375C34.0417 69.4375 36.8125 70.4375 40.0625 70.4375C42.6875 70.4375 44.7917 69.7083 46.375 68.25C48 66.7917 48.8125 64.875 48.8125 62.5C48.8125 61.5833 48.7083 60.7708 48.5 60.0625C48.3333 59.3542 48.0833 58.75 47.75 58.25C46.9167 56.9167 45.5833 55.5417 43.75 54.125C41.9583 52.7083 39.7917 51.2917 37.25 49.875C35.25 48.8333 33.5417 47.7917 32.125 46.75C30.7083 45.7083 29.5417 44.625 28.625 43.5C27.75 42.375 27.1042 41.2083 26.6875 40C26.2708 38.7917 26.0625 37.4792 26.0625 36.0625C26.0625 32.1042 27.4375 29.0208 30.1875 26.8125C31.3542 25.8542 32.6458 25.125 34.0625 24.625C35.4792 24.0833 36.875 23.8125 38.25 23.8125C39.5 23.8125 40.75 23.9583 42 24.25C43.2917 24.5 44.6042 24.875 45.9375 25.375C46.6042 25.6667 47.2083 25.875 47.75 26C48.2917 26.125 48.75 26.1875 49.125 26.1875C50.2917 26.1875 51.0417 25.3958 51.375 23.8125H52.875L54.4375 39Z" fill="white"/>
<path d="M84.5625 67.0625C83.5208 67.1458 82.6667 67.2917 82 67.5C81.375 67.6667 80.875 67.9583 80.5 68.375C80.1667 68.75 79.9375 69.2917 79.8125 70C79.6875 70.6667 79.625 71.5208 79.625 72.5625V87C78.9167 87.625 77.875 88.25 76.5 88.875C75.125 89.4583 73.5833 90 71.875 90.5C70.2083 90.9583 68.4792 91.3125 66.6875 91.5625C64.9375 91.8542 63.2917 92 61.75 92C57.7917 92 54.125 91.3542 50.75 90.0625C47.4167 88.7708 44.5625 86.875 42.1875 84.375C40.1875 82.25 38.7083 79.8333 37.75 77.125C36.7917 74.4167 36.3125 71.3333 36.3125 67.875C36.3125 64.2083 36.9167 60.8542 38.125 57.8125C39.3333 54.7292 41 52.0833 43.125 49.875C45.2917 47.6667 47.8542 45.9375 50.8125 44.6875C53.8125 43.4375 57.1042 42.8125 60.6875 42.8125C63.9375 42.8125 67.1875 43.3542 70.4375 44.4375C71.8125 44.9375 72.875 45.1875 73.625 45.1875C74.375 45.1875 75.0417 44.9583 75.625 44.5C76.2083 44.0417 76.6042 43.4792 76.8125 42.8125H78.3125L78.9375 57.875H77.3125C76.8542 56.7917 76.4375 55.8542 76.0625 55.0625C75.6875 54.2292 75.2917 53.5 74.875 52.875C74.5 52.2083 74.1042 51.625 73.6875 51.125C73.2708 50.5833 72.7917 50.0625 72.25 49.5625C69.4167 46.9375 65.9792 45.625 61.9375 45.625C59.3542 45.625 56.9583 46.125 54.75 47.125C52.5833 48.125 50.7292 49.5625 49.1875 51.4375C47.7292 53.2292 46.5625 55.6042 45.6875 58.5625C44.8125 61.4792 44.375 64.5417 44.375 67.75C44.375 71.0833 44.8125 74.0833 45.6875 76.75C46.5625 79.375 47.8125 81.6042 49.4375 83.4375C51.0625 85.2708 53.0208 86.6875 55.3125 87.6875C57.6458 88.6875 60.2708 89.1875 63.1875 89.1875C64.4792 89.1875 65.6875 89.0833 66.8125 88.875C67.9792 88.625 69 88.3125 69.875 87.9375C70.75 87.5625 71.4375 87.125 71.9375 86.625C72.4375 86.0833 72.6875 85.5208 72.6875 84.9375V73.375C72.6875 72.0833 72.625 71.0417 72.5 70.25C72.375 69.4583 72.0833 68.8542 71.625 68.4375C71.2083 67.9792 70.5833 67.6667 69.75 67.5C68.9167 67.2917 67.7917 67.1458 66.375 67.0625V65.75H84.5625V67.0625Z" fill="white"/>
</svg>
